<svg width="55" height="55" viewBox="0 0 55 55" fill="none" xmlns="http://www.w3.org/2000/svg">
<circle cx="27.5" cy="27.5" r="27.5" fill="white" fill-opacity="0.01"/>
<path d="M30.0039 37.7256H23.957V29.9795C23.957 29.4404 24.3203 29.0889 24.8594 29.0889H29.1133C29.6523 29.0889 30.0039 29.4404 30.0039 29.9795V37.7256ZM16.6562 37.0225C16.6562 38.6514 17.6406 39.6123 19.293 39.6123H34.7031C36.3555 39.6123 37.3281 38.6514 37.3281 37.0225V27.7412L27.6953 19.667C27.25 19.292 26.7227 19.3037 26.2891 19.667L16.6562 27.7412V37.0225ZM13 26.5693C13 27.0498 13.375 27.5068 14.0078 27.5068C14.3359 27.5068 14.6055 27.3311 14.8516 27.1318L26.582 17.2881C26.8398 17.0537 27.1562 17.0537 27.4141 17.2881L39.1445 27.1318C39.3789 27.3311 39.6484 27.5068 39.9766 27.5068C40.5273 27.5068 40.9727 27.167 40.9727 26.6045C40.9727 26.2529 40.8555 26.0186 40.6094 25.8076L28.4102 15.5537C27.543 14.8154 26.4648 14.8154 25.5859 15.5537L13.375 25.8076C13.1172 26.0186 13 26.2998 13 26.5693ZM34.3867 21.2842L37.3281 23.7685V18.3545C37.3281 17.8389 37 17.5107 36.4844 17.5107H35.2305C34.7266 17.5107 34.3867 17.8389 34.3867 18.3545V21.2842Z" fill="#269BD4"/>
</svg>
