<svg width="956" height="544" viewBox="0 0 956 544" fill="none" xmlns="http://www.w3.org/2000/svg">
<path d="M294.799 144L303.954 37.0664H316.991L331.493 111.114L346.361 37.0664H358.959L368.261 144H354.931L350.609 69L336.327 144H326.586L312.304 69L307.982 144H294.799ZM383.056 144V37.0664H397.484V144H383.056ZM414.184 125.25C417.455 127.252 420.58 128.79 423.559 129.864C426.537 130.89 429.271 131.402 431.762 131.402C436.156 131.402 439.647 130.133 442.235 127.594C444.823 125.006 446.117 121.563 446.117 117.267C446.117 110.968 441.161 103.766 431.249 95.6602L428.612 93.4629C422.411 88.3359 417.992 83.502 415.355 78.9609C412.768 74.4199 411.474 69.3906 411.474 63.873C411.474 55.8652 414.037 49.1758 419.164 43.8047C424.291 38.3848 430.639 35.6748 438.207 35.6748C441.527 35.6748 444.726 36.0654 447.802 36.8467C450.927 37.5791 453.979 38.7998 456.957 40.5088V54.8643C455.541 53.8877 454.174 53.0576 452.855 52.374C451.586 51.6904 450.219 51.0801 448.754 50.543C446.068 49.5664 443.456 49.0781 440.917 49.0781C436.376 49.0781 432.738 50.4209 430.004 53.1064C427.27 55.7432 425.902 59.2832 425.902 63.7266C425.902 69.8789 431.151 77.1543 441.649 85.5527L443.92 87.3105C450.072 92.2422 454.394 97.0029 456.884 101.593C459.423 106.183 460.692 111.358 460.692 117.12C460.692 125.372 458.08 132.135 452.855 137.408C447.631 142.682 440.941 145.318 432.787 145.318C429.906 145.318 426.879 144.879 423.705 144C420.58 143.121 417.406 141.778 414.184 139.972V125.25ZM471.898 125.25C475.17 127.252 478.295 128.79 481.273 129.864C484.252 130.89 486.986 131.402 489.477 131.402C493.871 131.402 497.362 130.133 499.95 127.594C502.538 125.006 503.832 121.563 503.832 117.267C503.832 110.968 498.876 103.766 488.964 95.6602L486.327 93.4629C480.126 88.3359 475.707 83.502 473.07 78.9609C470.482 74.4199 469.188 69.3906 469.188 63.873C469.188 55.8652 471.752 49.1758 476.879 43.8047C482.006 38.3848 488.354 35.6748 495.922 35.6748C499.242 35.6748 502.44 36.0654 505.517 36.8467C508.642 37.5791 511.693 38.7998 514.672 40.5088V54.8643C513.256 53.8877 511.889 53.0576 510.57 52.374C509.301 51.6904 507.934 51.0801 506.469 50.543C503.783 49.5664 501.171 49.0781 498.632 49.0781C494.091 49.0781 490.453 50.4209 487.719 53.1064C484.984 55.7432 483.617 59.2832 483.617 63.7266C483.617 69.8789 488.866 77.1543 499.364 85.5527L501.635 87.3105C507.787 92.2422 512.108 97.0029 514.599 101.593C517.138 106.183 518.407 111.358 518.407 117.12C518.407 125.372 515.795 132.135 510.57 137.408C505.346 142.682 498.656 145.318 490.502 145.318C487.621 145.318 484.594 144.879 481.42 144C478.295 143.121 475.121 141.778 471.898 139.972V125.25ZM555.761 64.6787L546.093 110.968H565.355L555.761 64.6787ZM523.9 144L548.949 37.0664H562.499L587.548 144H572.973L567.846 122.979H543.456L538.476 144H523.9ZM573.339 6.59766C572.46 12.2617 571.068 16.4365 569.164 19.1221C567.309 21.8076 564.843 23.1504 561.767 23.1504L559.862 22.9307C559.374 22.8818 559.008 22.833 558.764 22.7842C558.568 22.7354 558.202 22.5889 557.665 22.3447L552.831 20.5869L550.927 20.0742L549.169 19.7812C547.851 19.7812 546.776 20.1963 545.946 21.0264C545.312 21.6611 544.677 22.9063 544.042 24.7617H538.183C538.915 19.4883 540.209 15.5088 542.064 12.8232C543.969 10.0889 546.435 8.72168 549.462 8.72168C550.097 8.72168 550.805 8.81934 551.586 9.01465L554.369 9.74707L559.496 11.5781L560.961 11.9443L562.206 12.0176C563.573 12.0176 564.672 11.6025 565.502 10.7725C566.381 9.89355 567.04 8.50195 567.479 6.59766H573.339ZM609.813 90.3135C609.813 105.548 611.034 116.266 613.476 122.467C615.966 128.619 620.092 131.695 625.854 131.695C631.566 131.695 635.595 128.766 637.938 122.906C640.282 116.998 641.454 106.134 641.454 90.3135C641.454 74.8838 640.258 64.166 637.865 58.1602C635.521 52.1055 631.469 49.0781 625.707 49.0781C619.994 49.0781 615.893 52.1299 613.402 58.2334C612.279 61.2119 611.4 65.4355 610.766 70.9043C610.131 76.373 609.813 82.8428 609.813 90.3135ZM595.238 90.6064C595.238 71.0752 597.606 57.0371 602.343 48.4922C607.128 39.9473 614.916 35.6748 625.707 35.6748C636.352 35.6748 644.066 39.9229 648.852 48.4189C653.637 56.915 656.029 70.9775 656.029 90.6064C656.029 110.187 653.661 124.2 648.925 132.647C644.237 141.095 636.498 145.318 625.707 145.318C614.916 145.318 607.128 141.095 602.343 132.647C597.606 124.151 595.238 110.138 595.238 90.6064ZM183.983 262.916H189.257C194.677 262.916 198.656 261.573 201.195 258.888C203.734 256.202 205.004 252.003 205.004 246.29C205.004 240.235 203.808 235.987 201.415 233.546C199.071 231.056 195.019 229.811 189.257 229.811H183.983V262.916ZM183.983 310.377H188.817C195.409 310.377 199.95 309.132 202.44 306.642C204.931 304.103 206.176 299.586 206.176 293.092C206.176 286.646 204.833 281.983 202.147 279.103C199.511 276.222 195.116 274.781 188.964 274.781H183.983V310.377ZM169.628 324V217.066H189.403C199.804 217.066 207.348 219.215 212.035 223.512C216.771 227.76 219.14 234.645 219.14 244.166C219.14 251.344 217.992 256.837 215.697 260.646C213.451 264.454 209.789 267.213 204.711 268.922C210.229 270.24 214.281 272.853 216.869 276.759C219.457 280.616 220.751 286.109 220.751 293.238C220.751 303.834 218.31 311.622 213.427 316.603C208.593 321.534 200.976 324 190.575 324H169.628ZM247.265 270.313C247.265 285.548 248.485 296.266 250.927 302.467C253.417 308.619 257.543 311.695 263.305 311.695C269.018 311.695 273.046 308.766 275.39 302.906C277.733 296.998 278.905 286.134 278.905 270.313C278.905 254.884 277.709 244.166 275.316 238.16C272.973 232.105 268.92 229.078 263.158 229.078C257.445 229.078 253.344 232.13 250.854 238.233C249.73 241.212 248.852 245.436 248.217 250.904C247.582 256.373 247.265 262.843 247.265 270.313ZM232.689 270.606C232.689 251.075 235.058 237.037 239.794 228.492C244.579 219.947 252.367 215.675 263.158 215.675C273.803 215.675 281.518 219.923 286.303 228.419C291.088 236.915 293.48 250.978 293.48 270.606C293.48 290.187 291.112 304.2 286.376 312.647C281.688 321.095 273.949 325.318 263.158 325.318C252.367 325.318 244.579 321.095 239.794 312.647C235.058 304.151 232.689 290.138 232.689 270.606ZM332.958 244.679L323.29 290.968H342.553L332.958 244.679ZM301.098 324L326.146 217.066H339.696L364.745 324H350.17L345.043 302.979H320.653L315.673 324H301.098ZM404.442 324V217.066H417.772L446.117 291.334V217.066H459.813V324H446.264L418.065 249.146V324H404.442ZM490.282 270.313C490.282 285.548 491.503 296.266 493.944 302.467C496.435 308.619 500.561 311.695 506.322 311.695C512.035 311.695 516.063 308.766 518.407 302.906C520.751 296.998 521.923 286.134 521.923 270.313C521.923 254.884 520.727 244.166 518.334 238.16C515.99 232.105 511.938 229.078 506.176 229.078C500.463 229.078 496.361 232.13 493.871 238.233C492.748 241.212 491.869 245.436 491.234 250.904C490.6 256.373 490.282 262.843 490.282 270.313ZM475.707 270.606C475.707 251.075 478.075 237.037 482.812 228.492C487.597 219.947 495.385 215.675 506.176 215.675C516.82 215.675 524.535 219.923 529.32 228.419C534.105 236.915 536.498 250.978 536.498 270.606C536.498 290.187 534.13 304.2 529.394 312.647C524.706 321.095 516.967 325.318 506.176 325.318C495.385 325.318 487.597 321.095 482.812 312.647C478.075 304.151 475.707 290.138 475.707 270.606ZM564.257 324V230.396H544.408V217.066H598.607V230.396H578.759V324H564.257ZM609.667 324V217.066H624.096V324H609.667ZM608.275 207.325L620.287 181.983H633.324L615.966 207.325H608.275ZM687.743 321.583C686.571 322.218 685.424 322.755 684.301 323.194C683.227 323.585 681.957 323.976 680.492 324.366C677.855 325.001 675.268 325.318 672.729 325.318C661.889 325.318 653.734 320.851 648.266 311.915C642.797 302.979 640.062 289.503 640.062 271.485C640.062 253.175 642.943 239.308 648.705 229.884C654.516 220.411 663.085 215.675 674.413 215.675C677.001 215.675 679.345 215.919 681.444 216.407C683.739 216.847 685.839 217.555 687.743 218.531V232.228C685.79 231.251 683.812 230.494 681.811 229.957C681.078 229.762 680.199 229.591 679.174 229.444C678.148 229.298 677.27 229.225 676.537 229.225C668.969 229.225 663.402 232.594 659.838 239.332C656.273 246.021 654.491 256.69 654.491 271.339C654.491 285.011 656.151 295.143 659.472 301.734C662.841 308.277 668.017 311.549 674.999 311.549C677.001 311.549 679.003 311.231 681.005 310.597C683.056 309.962 685.302 308.937 687.743 307.521V321.583ZM700.634 324V217.066H715.062V324H700.634ZM757.909 244.679L748.241 290.968H767.504L757.909 244.679ZM726.049 324L751.098 217.066H764.647L789.696 324H775.121L769.994 302.979H745.604L740.624 324H726.049Z" fill="white"/>
<path d="M340.548 468.44H355.108C360.868 468.44 365.028 469.507 367.588 471.64C370.201 473.773 371.508 477.027 371.508 481.4C371.508 483.427 371.214 485.187 370.628 486.68C370.094 488.173 369.481 489.427 368.788 490.44C367.988 491.613 367.108 492.627 366.148 493.48C367.428 493.96 368.628 494.573 369.748 495.32C370.868 496.067 371.854 496.973 372.708 498.04C373.561 499.107 374.228 500.387 374.708 501.88C375.241 503.32 375.508 505.027 375.508 507C375.508 509.187 375.214 511.267 374.628 513.24C374.041 515.16 373.054 516.84 371.668 518.28C370.281 519.72 368.441 520.867 366.148 521.72C363.854 522.573 361.001 523 357.588 523H340.548V468.44ZM347.268 492.12H360.628C361.374 491.533 362.041 490.76 362.628 489.8C363.161 489 363.641 488.013 364.068 486.84C364.494 485.613 364.708 484.147 364.708 482.44C364.708 479.293 363.881 477.187 362.228 476.12C360.628 475 358.361 474.44 355.428 474.44H347.268V492.12ZM347.268 517H358.148C361.668 517 364.308 516.093 366.068 514.28C367.828 512.467 368.708 510.04 368.708 507C368.708 505.667 368.521 504.44 368.148 503.32C367.828 502.2 367.241 501.24 366.388 500.44C365.534 499.587 364.388 498.92 362.948 498.44C361.508 497.96 359.721 497.72 357.588 497.72H347.268V517ZM394.563 468.44H408.003C410.937 468.44 413.603 468.707 416.003 469.24C418.457 469.72 420.537 470.573 422.243 471.8C423.95 472.973 425.257 474.547 426.163 476.52C427.07 478.493 427.523 480.973 427.523 483.96C427.47 487.267 426.91 489.96 425.843 492.04C424.777 494.067 423.47 495.72 421.923 497C420.377 498.227 418.59 499.133 416.563 499.72V499.88C416.777 500.093 417.097 500.493 417.523 501.08C418.003 501.613 418.403 502.093 418.723 502.52L434.163 523H426.243L410.403 501.32H401.283V523H394.563V468.44ZM420.723 485.08C420.723 482.84 420.43 481.027 419.843 479.64C419.31 478.2 418.483 477.107 417.363 476.36C416.297 475.613 414.963 475.107 413.363 474.84C411.763 474.573 409.95 474.44 407.923 474.44H401.283V495.32H409.203C411.283 495.32 413.043 495.053 414.483 494.52C415.923 493.987 417.097 493.267 418.003 492.36C418.91 491.4 419.577 490.307 420.003 489.08C420.43 487.853 420.67 486.52 420.723 485.08ZM462.092 468.44H470.412L489.132 523H482.172L477.372 508.44H455.212L450.332 523H443.372L462.092 468.44ZM475.212 502.04L466.412 474.84H466.172L457.292 502.04H475.212ZM533.64 475.96C532.36 475.64 531.026 475.347 529.64 475.08C528.413 474.813 527 474.6 525.4 474.44C523.853 474.227 522.226 474.12 520.52 474.12C516.573 474.12 513.746 474.733 512.04 475.96C510.333 477.133 509.48 478.973 509.48 481.48C509.533 483.453 510.253 485.133 511.64 486.52C513.026 487.853 514.76 489.107 516.84 490.28C518.92 491.4 521.186 492.52 523.64 493.64C526.146 494.707 528.44 495.96 530.52 497.4C532.6 498.787 534.333 500.44 535.72 502.36C537.16 504.227 537.88 506.52 537.88 509.24C537.88 512.387 537.186 514.92 535.8 516.84C534.466 518.76 532.76 520.253 530.68 521.32C528.6 522.387 526.306 523.107 523.8 523.48C521.346 523.853 519 524.04 516.76 524.04C514.626 524.04 512.68 523.907 510.92 523.64C509.16 523.373 507.64 523.08 506.36 522.76C504.866 522.387 503.506 521.96 502.28 521.48L503.88 515C505.106 515.533 506.413 515.987 507.8 516.36C509.026 516.68 510.386 516.973 511.88 517.24C513.426 517.507 515.053 517.64 516.76 517.64C518.84 517.64 520.733 517.507 522.44 517.24C524.2 516.973 525.72 516.547 527 515.96C528.28 515.373 529.266 514.6 529.96 513.64C530.706 512.68 531.08 511.507 531.08 510.12C531.026 508.04 530.333 506.36 529 505.08C527.72 503.747 525.986 502.493 523.8 501.32C521.666 500.093 519.346 498.92 516.84 497.8C514.386 496.68 512.12 495.4 510.04 493.96C507.96 492.52 506.2 490.813 504.76 488.84C503.373 486.867 502.68 484.413 502.68 481.48C502.68 479.773 502.973 478.093 503.56 476.44C504.146 474.787 505.133 473.32 506.52 472.04C507.96 470.76 509.8 469.72 512.04 468.92C514.333 468.12 517.16 467.72 520.52 467.72C522.44 467.72 524.253 467.827 525.96 468.04C527.72 468.2 529.24 468.387 530.52 468.6C532.013 468.867 533.426 469.16 534.76 469.48L533.64 475.96ZM555.829 468.44H562.549V523H555.829V468.44ZM584.61 468.44H591.33V516.6H616.13V523H584.61V468.44Z" fill="white"/>
<path d="M495.5 392.5C653 392.5 955.5 427 955.5 427C955.5 427 849.253 407.672 739 396C642.332 385.766 527.969 381 495.5 381C462.126 381 357.396 385.452 243.5 396C120.21 407.418 1 427 1 427C1 427 338 392.5 495.5 392.5Z" fill="white" stroke="white"/>
</svg>
