<svg width="24" height="24" viewBox="0 0 24 24" fill="none" xmlns="http://www.w3.org/2000/svg">
<path d="M11.9531 23.9532C18.4922 23.9532 23.9062 18.5391 23.9062 12C23.9062 5.47266 18.4805 0.046875 11.9414 0.046875C5.41406 0.046875 0 5.47266 0 12C0 18.5391 5.42578 23.9532 11.9531 23.9532ZM9.59766 12.0235L5.44922 16.1602C5.36719 16.0196 5.33203 15.7383 5.33203 15.3047V8.69532C5.33203 8.27344 5.36719 7.99219 5.42578 7.86328L9.59766 12.0235ZM11.9648 12.6329C11.7656 12.6329 11.543 12.5743 11.2969 12.3516L6.02344 7.06641C6.17578 6.94922 6.51562 6.83204 7.01953 6.83204H16.8867C17.3906 6.83204 17.7422 6.94922 17.8945 7.06641L12.6211 12.3516C12.3867 12.5625 12.1758 12.6329 11.9648 12.6329ZM14.2852 12.0235L18.457 7.86328C18.5156 7.99219 18.5625 8.27344 18.5625 8.69532V15.3047C18.5625 15.7383 18.5156 16.0196 18.4336 16.1602L14.2852 12.0235ZM11.9531 13.5938C12.3867 13.5938 12.7148 13.4532 13.1836 13.0196L13.5703 12.668L17.8477 16.9454C17.707 17.0743 17.3789 17.168 16.875 17.168H7.01953C6.52734 17.168 6.1875 17.0743 6.04688 16.9454L10.3359 12.668L10.7227 13.0196C11.1797 13.4532 11.5195 13.5938 11.9531 13.5938Z" fill="#208CCC"/>
</svg>
