<svg width="71" height="71" viewBox="0 0 71 71" fill="none" xmlns="http://www.w3.org/2000/svg">
<g filter="url(#filter0_d_93_1213)">
<circle cx="32.5" cy="31.5" r="27.5" fill="#269BD4"/>
</g>
<path d="M35.0039 41.7256H28.957V33.9795C28.957 33.4404 29.3203 33.0889 29.8594 33.0889H34.1133C34.6523 33.0889 35.0039 33.4404 35.0039 33.9795V41.7256ZM21.6562 41.0225C21.6562 42.6514 22.6406 43.6123 24.293 43.6123H39.7031C41.3555 43.6123 42.3281 42.6514 42.3281 41.0225V31.7412L32.6953 23.667C32.25 23.292 31.7227 23.3037 31.2891 23.667L21.6562 31.7412V41.0225ZM18 30.5693C18 31.0498 18.375 31.5068 19.0078 31.5068C19.3359 31.5068 19.6055 31.3311 19.8516 31.1318L31.582 21.2881C31.8398 21.0537 32.1562 21.0537 32.4141 21.2881L44.1445 31.1318C44.3789 31.3311 44.6484 31.5068 44.9766 31.5068C45.5273 31.5068 45.9727 31.167 45.9727 30.6045C45.9727 30.2529 45.8555 30.0186 45.6094 29.8076L33.4102 19.5537C32.543 18.8154 31.4648 18.8154 30.5859 19.5537L18.375 29.8076C18.1172 30.0186 18 30.2998 18 30.5693ZM39.3867 25.2842L42.3281 27.7685V22.3545C42.3281 21.8389 42 21.5107 41.4844 21.5107H40.2305C39.7266 21.5107 39.3867 21.8389 39.3867 22.3545V25.2842Z" fill="white"/>
<defs>
<filter id="filter0_d_93_1213" x="0" y="0" width="71" height="71" filterUnits="userSpaceOnUse" color-interpolation-filters="sRGB">
<feFlood flood-opacity="0" result="BackgroundImageFix"/>
<feColorMatrix in="SourceAlpha" type="matrix" values="0 0 0 0 0 0 0 0 0 0 0 0 0 0 0 0 0 0 127 0" result="hardAlpha"/>
<feMorphology radius="1" operator="erode" in="SourceAlpha" result="effect1_dropShadow_93_1213"/>
<feOffset dx="3" dy="4"/>
<feGaussianBlur stdDeviation="4.5"/>
<feComposite in2="hardAlpha" operator="out"/>
<feColorMatrix type="matrix" values="0 0 0 0 0 0 0 0 0 0 0 0 0 0 0 0 0 0 0.25 0"/>
<feBlend mode="normal" in2="BackgroundImageFix" result="effect1_dropShadow_93_1213"/>
<feBlend mode="normal" in="SourceGraphic" in2="effect1_dropShadow_93_1213" result="shape"/>
</filter>
</defs>
</svg>
