<svg width="24" height="24" viewBox="0 0 24 24" fill="none" xmlns="http://www.w3.org/2000/svg">
<path d="M11.9531 23.9532C18.4922 23.9532 23.9062 18.5391 23.9062 12C23.9062 5.47266 18.4805 0.046875 11.9414 0.046875C5.41406 0.046875 0 5.47266 0 12C0 18.5391 5.42578 23.9532 11.9531 23.9532ZM8.63672 6.82032C9.82031 6.82032 10.8867 7.30078 11.4492 8.09766C11.5547 8.25 11.5664 8.27344 11.5664 8.42578V16.8282C11.5664 16.9688 11.4609 17.0625 11.332 17.0625C11.2617 17.0625 11.2148 17.0391 11.1445 16.9805C10.4766 16.418 9.67969 16.1485 8.84766 16.1485C7.875 16.1485 6.9375 16.4883 6.25781 17.0743C6.14062 17.168 6.01172 17.2149 5.85938 17.2149C5.60156 17.2149 5.42578 17.0508 5.42578 16.8047V8.78907C5.42578 8.57813 5.42578 8.50782 5.49609 8.40235C6.07031 7.39454 7.38281 6.82032 8.63672 6.82032ZM15.2812 6.82032C16.5352 6.82032 17.8477 7.39454 18.4219 8.40235C18.4922 8.4961 18.5039 8.57813 18.5039 8.78907V16.8047C18.5039 17.0508 18.3164 17.2149 18.0586 17.2149C17.9062 17.2149 17.7891 17.168 17.6602 17.0743C16.9922 16.4883 16.0547 16.1485 15.0703 16.1485C14.25 16.1485 13.4414 16.418 12.7734 16.9805C12.7148 17.0391 12.6562 17.0625 12.5859 17.0625C12.457 17.0625 12.3633 16.9688 12.3633 16.8282V8.42578C12.3633 8.27344 12.3633 8.25 12.4688 8.09766C13.043 7.30078 14.0977 6.82032 15.2812 6.82032Z" fill="#1F89CA"/>
</svg>
