<svg width="401" height="852" viewBox="0 0 401 852" fill="none" xmlns="http://www.w3.org/2000/svg">
<rect width="401" height="852" fill="url(#paint0_linear_422_780)"/>
<path d="M128.526 379L132.188 336.227H137.403L143.204 365.846L149.151 336.227H154.19L157.911 379H152.579L150.85 349L145.137 379H141.241L135.528 349L133.799 379H128.526ZM163.829 379V336.227H169.6V379H163.829ZM176.28 371.5C177.588 372.301 178.838 372.916 180.03 373.346C181.221 373.756 182.315 373.961 183.311 373.961C185.069 373.961 186.465 373.453 187.5 372.438C188.536 371.402 189.053 370.025 189.053 368.307C189.053 365.787 187.071 362.906 183.106 359.664L182.051 358.785C179.571 356.734 177.803 354.801 176.748 352.984C175.713 351.168 175.196 349.156 175.196 346.949C175.196 343.746 176.221 341.07 178.272 338.922C180.323 336.754 182.862 335.67 185.889 335.67C187.217 335.67 188.497 335.826 189.727 336.139C190.977 336.432 192.198 336.92 193.389 337.604V343.346C192.823 342.955 192.276 342.623 191.748 342.35C191.241 342.076 190.694 341.832 190.108 341.617C189.034 341.227 187.989 341.031 186.973 341.031C185.157 341.031 183.702 341.568 182.608 342.643C181.514 343.697 180.967 345.113 180.967 346.891C180.967 349.352 183.067 352.262 187.266 355.621L188.174 356.324C190.635 358.297 192.364 360.201 193.36 362.037C194.375 363.873 194.883 365.943 194.883 368.248C194.883 371.549 193.838 374.254 191.748 376.363C189.659 378.473 186.983 379.527 183.721 379.527C182.569 379.527 181.358 379.352 180.088 379C178.838 378.648 177.569 378.111 176.28 377.389V371.5ZM199.366 371.5C200.674 372.301 201.924 372.916 203.116 373.346C204.307 373.756 205.401 373.961 206.397 373.961C208.155 373.961 209.551 373.453 210.586 372.438C211.622 371.402 212.139 370.025 212.139 368.307C212.139 365.787 210.157 362.906 206.192 359.664L205.137 358.785C202.657 356.734 200.889 354.801 199.834 352.984C198.799 351.168 198.282 349.156 198.282 346.949C198.282 343.746 199.307 341.07 201.358 338.922C203.409 336.754 205.948 335.67 208.975 335.67C210.303 335.67 211.582 335.826 212.813 336.139C214.063 336.432 215.284 336.92 216.475 337.604V343.346C215.909 342.955 215.362 342.623 214.834 342.35C214.327 342.076 213.78 341.832 213.194 341.617C212.12 341.227 211.075 341.031 210.059 341.031C208.243 341.031 206.788 341.568 205.694 342.643C204.6 343.697 204.053 345.113 204.053 346.891C204.053 349.352 206.153 352.262 210.352 355.621L211.26 356.324C213.721 358.297 215.45 360.201 216.446 362.037C217.461 363.873 217.969 365.943 217.969 368.248C217.969 371.549 216.924 374.254 214.834 376.363C212.745 378.473 210.069 379.527 206.807 379.527C205.655 379.527 204.444 379.352 203.174 379C201.924 378.648 200.655 378.111 199.366 377.389V371.5ZM232.911 347.271L229.043 365.787H236.748L232.911 347.271ZM220.166 379L230.186 336.227H235.606L245.625 379H239.795L237.745 370.592H227.989L225.997 379H220.166ZM239.942 324.039C239.59 326.305 239.034 327.975 238.272 329.049C237.53 330.123 236.543 330.66 235.313 330.66L234.551 330.572C234.356 330.553 234.209 330.533 234.112 330.514C234.034 330.494 233.887 330.436 233.672 330.338L231.739 329.635L230.977 329.43L230.274 329.312C229.747 329.312 229.317 329.479 228.985 329.811C228.731 330.064 228.477 330.562 228.223 331.305H225.879C226.172 329.195 226.69 327.604 227.432 326.529C228.194 325.436 229.18 324.889 230.391 324.889C230.645 324.889 230.928 324.928 231.241 325.006L232.354 325.299L234.405 326.031L234.991 326.178L235.489 326.207C236.036 326.207 236.475 326.041 236.807 325.709C237.159 325.357 237.422 324.801 237.598 324.039H239.942ZM254.532 357.525C254.532 363.619 255.02 367.906 255.997 370.387C256.993 372.848 258.643 374.078 260.948 374.078C263.233 374.078 264.844 372.906 265.782 370.562C266.719 368.199 267.188 363.854 267.188 357.525C267.188 351.354 266.709 347.066 265.752 344.664C264.815 342.242 263.194 341.031 260.889 341.031C258.604 341.031 256.963 342.252 255.967 344.693C255.518 345.885 255.166 347.574 254.913 349.762C254.659 351.949 254.532 354.537 254.532 357.525ZM248.702 357.643C248.702 349.83 249.649 344.215 251.543 340.797C253.457 337.379 256.573 335.67 260.889 335.67C265.147 335.67 268.233 337.369 270.147 340.768C272.061 344.166 273.018 349.791 273.018 357.643C273.018 365.475 272.071 371.08 270.176 374.459C268.301 377.838 265.206 379.527 260.889 379.527C256.573 379.527 253.457 377.838 251.543 374.459C249.649 371.061 248.702 365.455 248.702 357.643ZM84.1996 426.566H86.309C88.477 426.566 90.0688 426.029 91.0844 424.955C92.1 423.881 92.6078 422.201 92.6078 419.916C92.6078 417.494 92.1293 415.795 91.1723 414.818C90.2348 413.822 88.6137 413.324 86.309 413.324H84.1996V426.566ZM84.1996 445.551H86.1332C88.77 445.551 90.5864 445.053 91.5825 444.057C92.5786 443.041 93.0766 441.234 93.0766 438.637C93.0766 436.059 92.5395 434.193 91.4653 433.041C90.4106 431.889 88.6528 431.312 86.1918 431.312H84.1996V445.551ZM78.4575 451V408.227H86.3676C90.5278 408.227 93.5453 409.086 95.4203 410.805C97.3149 412.504 98.2621 415.258 98.2621 419.066C98.2621 421.938 97.8032 424.135 96.8852 425.658C95.9868 427.182 94.5219 428.285 92.4907 428.969C94.6977 429.496 96.3188 430.541 97.3539 432.104C98.3891 433.646 98.9067 435.844 98.9067 438.695C98.9067 442.934 97.9301 446.049 95.977 448.041C94.0434 450.014 90.9965 451 86.8364 451H78.4575ZM109.512 429.525C109.512 435.619 110 439.906 110.977 442.387C111.973 444.848 113.623 446.078 115.928 446.078C118.213 446.078 119.825 444.906 120.762 442.562C121.7 440.199 122.168 435.854 122.168 429.525C122.168 423.354 121.69 419.066 120.733 416.664C119.795 414.242 118.174 413.031 115.87 413.031C113.584 413.031 111.944 414.252 110.948 416.693C110.498 417.885 110.147 419.574 109.893 421.762C109.639 423.949 109.512 426.537 109.512 429.525ZM103.682 429.643C103.682 421.83 104.629 416.215 106.524 412.797C108.438 409.379 111.553 407.67 115.87 407.67C120.127 407.67 123.213 409.369 125.127 412.768C127.041 416.166 127.998 421.791 127.998 429.643C127.998 437.475 127.051 443.08 125.157 446.459C123.282 449.838 120.186 451.527 115.87 451.527C111.553 451.527 108.438 449.838 106.524 446.459C104.629 443.061 103.682 437.455 103.682 429.643ZM143.789 419.271L139.922 437.787H147.627L143.789 419.271ZM131.045 451L141.065 408.227H146.485L156.504 451H150.674L148.623 442.592H138.868L136.875 451H131.045ZM172.383 451V408.227H177.715L189.053 437.934V408.227H194.532V451H189.112L177.832 421.059V451H172.383ZM206.719 429.525C206.719 435.619 207.207 439.906 208.184 442.387C209.18 444.848 210.831 446.078 213.135 446.078C215.42 446.078 217.032 444.906 217.969 442.562C218.907 440.199 219.375 435.854 219.375 429.525C219.375 423.354 218.897 419.066 217.94 416.664C217.002 414.242 215.381 413.031 213.077 413.031C210.791 413.031 209.151 414.252 208.155 416.693C207.706 417.885 207.354 419.574 207.1 421.762C206.846 423.949 206.719 426.537 206.719 429.525ZM200.889 429.643C200.889 421.83 201.836 416.215 203.731 412.797C205.645 409.379 208.76 407.67 213.077 407.67C217.334 407.67 220.42 409.369 222.334 412.768C224.248 416.166 225.206 421.791 225.206 429.643C225.206 437.475 224.258 443.08 222.364 446.459C220.489 449.838 217.393 451.527 213.077 451.527C208.76 451.527 205.645 449.838 203.731 446.459C201.836 443.061 200.889 437.455 200.889 429.643ZM236.309 451V413.559H228.37V408.227H250.049V413.559H242.11V451H236.309ZM254.473 451V408.227H260.245V451H254.473ZM253.916 404.33L258.721 394.193H263.936L256.993 404.33H253.916ZM285.704 450.033C285.235 450.287 284.776 450.502 284.327 450.678C283.897 450.834 283.389 450.99 282.803 451.146C281.748 451.4 280.713 451.527 279.698 451.527C275.362 451.527 272.1 449.74 269.913 446.166C267.725 442.592 266.631 437.201 266.631 429.994C266.631 422.67 267.784 417.123 270.088 413.354C272.413 409.564 275.84 407.67 280.372 407.67C281.407 407.67 282.344 407.768 283.184 407.963C284.102 408.139 284.942 408.422 285.704 408.812V414.291C284.922 413.9 284.131 413.598 283.331 413.383C283.038 413.305 282.686 413.236 282.276 413.178C281.866 413.119 281.514 413.09 281.221 413.09C278.194 413.09 275.967 414.438 274.541 417.133C273.116 419.809 272.403 424.076 272.403 429.936C272.403 435.404 273.067 439.457 274.395 442.094C275.743 444.711 277.813 446.02 280.606 446.02C281.407 446.02 282.207 445.893 283.008 445.639C283.829 445.385 284.727 444.975 285.704 444.408V450.033ZM290.86 451V408.227H296.631V451H290.86ZM313.77 419.271L309.903 437.787H317.608L313.77 419.271ZM301.026 451L311.045 408.227H316.465L326.485 451H320.655L318.604 442.592H308.848L306.856 451H301.026Z" fill="white"/>
<path d="M146.527 505.176H152.351C154.655 505.176 156.319 505.603 157.343 506.456C158.388 507.309 158.911 508.611 158.911 510.36C158.911 511.171 158.793 511.875 158.559 512.472C158.345 513.069 158.1 513.571 157.823 513.976C157.503 514.445 157.151 514.851 156.767 515.192C157.279 515.384 157.759 515.629 158.207 515.928C158.655 516.227 159.049 516.589 159.391 517.016C159.732 517.443 159.999 517.955 160.191 518.552C160.404 519.128 160.511 519.811 160.511 520.6C160.511 521.475 160.393 522.307 160.159 523.096C159.924 523.864 159.529 524.536 158.975 525.112C158.42 525.688 157.684 526.147 156.767 526.488C155.849 526.829 154.708 527 153.343 527H146.527V505.176ZM149.215 514.648H154.559C154.857 514.413 155.124 514.104 155.359 513.72C155.572 513.4 155.764 513.005 155.935 512.536C156.105 512.045 156.191 511.459 156.191 510.776C156.191 509.517 155.86 508.675 155.199 508.248C154.559 507.8 153.652 507.576 152.479 507.576H149.215V514.648ZM149.215 524.6H153.567C154.975 524.6 156.031 524.237 156.735 523.512C157.439 522.787 157.791 521.816 157.791 520.6C157.791 520.067 157.716 519.576 157.567 519.128C157.439 518.68 157.204 518.296 156.863 517.976C156.521 517.635 156.063 517.368 155.487 517.176C154.911 516.984 154.196 516.888 153.343 516.888H149.215V524.6ZM168.133 505.176H173.509C174.682 505.176 175.749 505.283 176.709 505.496C177.69 505.688 178.522 506.029 179.205 506.52C179.888 506.989 180.41 507.619 180.773 508.408C181.136 509.197 181.317 510.189 181.317 511.384C181.296 512.707 181.072 513.784 180.645 514.616C180.218 515.427 179.696 516.088 179.077 516.6C178.458 517.091 177.744 517.453 176.933 517.688V517.752C177.018 517.837 177.146 517.997 177.317 518.232C177.509 518.445 177.669 518.637 177.797 518.808L183.973 527H180.805L174.469 518.328H170.821V527H168.133V505.176ZM178.597 511.832C178.597 510.936 178.48 510.211 178.245 509.656C178.032 509.08 177.701 508.643 177.253 508.344C176.826 508.045 176.293 507.843 175.653 507.736C175.013 507.629 174.288 507.576 173.477 507.576H170.821V515.928H173.989C174.821 515.928 175.525 515.821 176.101 515.608C176.677 515.395 177.146 515.107 177.509 514.744C177.872 514.36 178.138 513.923 178.309 513.432C178.48 512.941 178.576 512.408 178.597 511.832ZM195.144 505.176H198.472L205.96 527H203.176L201.256 521.176H192.392L190.44 527H187.656L195.144 505.176ZM200.392 518.616L196.872 507.736H196.776L193.224 518.616H200.392ZM223.763 508.184C223.251 508.056 222.718 507.939 222.163 507.832C221.673 507.725 221.107 507.64 220.467 507.576C219.849 507.491 219.198 507.448 218.515 507.448C216.937 507.448 215.806 507.693 215.123 508.184C214.441 508.653 214.099 509.389 214.099 510.392C214.121 511.181 214.409 511.853 214.963 512.408C215.518 512.941 216.211 513.443 217.043 513.912C217.875 514.36 218.782 514.808 219.763 515.256C220.766 515.683 221.683 516.184 222.515 516.76C223.347 517.315 224.041 517.976 224.595 518.744C225.171 519.491 225.459 520.408 225.459 521.496C225.459 522.755 225.182 523.768 224.627 524.536C224.094 525.304 223.411 525.901 222.579 526.328C221.747 526.755 220.83 527.043 219.827 527.192C218.846 527.341 217.907 527.416 217.011 527.416C216.158 527.416 215.379 527.363 214.675 527.256C213.971 527.149 213.363 527.032 212.851 526.904C212.254 526.755 211.71 526.584 211.219 526.392L211.859 523.8C212.35 524.013 212.873 524.195 213.427 524.344C213.918 524.472 214.462 524.589 215.059 524.696C215.678 524.803 216.329 524.856 217.011 524.856C217.843 524.856 218.601 524.803 219.283 524.696C219.987 524.589 220.595 524.419 221.107 524.184C221.619 523.949 222.014 523.64 222.291 523.256C222.59 522.872 222.739 522.403 222.739 521.848C222.718 521.016 222.441 520.344 221.907 519.832C221.395 519.299 220.702 518.797 219.827 518.328C218.974 517.837 218.046 517.368 217.043 516.92C216.062 516.472 215.155 515.96 214.323 515.384C213.491 514.808 212.787 514.125 212.211 513.336C211.657 512.547 211.379 511.565 211.379 510.392C211.379 509.709 211.497 509.037 211.731 508.376C211.966 507.715 212.361 507.128 212.915 506.616C213.491 506.104 214.227 505.688 215.123 505.368C216.041 505.048 217.171 504.888 218.515 504.888C219.283 504.888 220.009 504.931 220.691 505.016C221.395 505.08 222.003 505.155 222.515 505.24C223.113 505.347 223.678 505.464 224.211 505.592L223.763 508.184ZM232.639 505.176H235.327V527H232.639V505.176ZM244.152 505.176H246.84V524.44H256.76V527H244.152V505.176Z" fill="white"/>
<path d="M200.896 480C266.899 480 396 496.5 396 496.5C396 496.5 369.5 490 322 482.5C274.5 475 214.503 473 200.896 473C186.91 473 150 475.011 99 480C53 484.5 5 496.5 5 496.5C5 496.5 134.893 480 200.896 480Z" fill="white" stroke="white"/>
<defs>
<linearGradient id="paint0_linear_422_780" x1="-12" y1="-41" x2="466.5" y2="985" gradientUnits="userSpaceOnUse">
<stop stop-color="#0D60B1"/>
<stop offset="1" stop-color="#30B2E2"/>
</linearGradient>
</defs>
</svg>
