<svg width="24" height="24" viewBox="0 0 24 24" fill="none" xmlns="http://www.w3.org/2000/svg">
<path d="M11.9531 23.9532C18.4922 23.9532 23.9062 18.5391 23.9062 12C23.9062 5.47266 18.4805 0.046875 11.9414 0.046875C5.41406 0.046875 0 5.47266 0 12C0 18.5391 5.42578 23.9532 11.9531 23.9532ZM7.59375 16.793V11.9766C7.59375 11.1211 7.94531 10.711 8.64844 10.6641V9.23438C8.64844 7.00782 9.98438 5.51954 11.9531 5.51954C13.9219 5.51954 15.2578 7.00782 15.2578 9.23438V10.6641C15.9609 10.711 16.3125 11.1211 16.3125 11.9766V16.793C16.3125 17.6954 15.9141 18.1055 15.082 18.1055H8.82422C7.99219 18.1055 7.59375 17.6954 7.59375 16.793ZM9.91406 10.6524H13.9922V9.09375C13.9922 7.6875 13.1719 6.73828 11.9531 6.73828C10.7344 6.73828 9.91406 7.6875 9.91406 9.09375V10.6524Z" fill="#208BCB"/>
</svg>
