<svg width="55" height="55" viewBox="0 0 55 55" fill="none" xmlns="http://www.w3.org/2000/svg">
<circle cx="27.5" cy="27.5" r="27.5" fill="#269BD4"/>
<path d="M21.75 35.1914C21.75 35.5406 21.8763 35.8494 22.112 36.0698C22.3462 36.2888 22.6688 36.4023 23.0312 36.4023H30.4492C30.8117 36.4023 31.1343 36.2888 31.3685 36.0698C31.6042 35.8494 31.7305 35.5406 31.7305 35.1914C31.7305 34.8466 31.6032 34.5407 31.3677 34.3225C31.1337 34.1057 30.8117 33.9922 30.4492 33.9922H28.3438V25.3008C28.3438 24.9297 28.2226 24.6003 27.9921 24.3622C27.761 24.1235 27.4385 23.9961 27.0742 23.9961H23.3594C23.0038 23.9961 22.6829 24.1059 22.4477 24.3184C22.2102 24.5328 22.0781 24.8362 22.0781 25.1836C22.0781 25.5394 22.2078 25.8508 22.4444 26.0722C22.6795 26.2921 23.0017 26.4062 23.3594 26.4062H25.6758V33.9922H23.0312C22.6688 33.9922 22.3467 34.1057 22.1128 34.3225C21.8773 34.5407 21.75 34.8466 21.75 35.1914ZM24.6562 19.6992C24.6562 20.7748 25.5182 21.6367 26.5938 21.6367C27.6845 21.6367 28.5195 20.7714 28.5195 19.6992C28.5195 18.6165 27.6856 17.75 26.5938 17.75C25.517 17.75 24.6562 18.6131 24.6562 19.6992Z" fill="white" stroke="white" stroke-width="0.5"/>
</svg>
