<svg width="24" height="24" viewBox="0 0 24 24" fill="none" xmlns="http://www.w3.org/2000/svg">
<path d="M11.9531 23.9531C18.4922 23.9531 23.9062 18.5274 23.9062 12C23.9062 5.46094 18.4805 0.046875 11.9414 0.046875C5.41406 0.046875 0 5.46094 0 12C0 18.5274 5.42578 23.9531 11.9531 23.9531ZM5.34375 12.9961C4.28906 12.9961 4.16016 11.8711 4.94531 11.4961L16.3594 6.08204C17.3086 5.63671 18.1055 6.4336 17.6719 7.3711L12.3047 18.8086C11.9414 19.5821 10.793 19.4766 10.793 18.3985V13.3946C10.793 13.1602 10.6406 13.0078 10.4062 13.0078L5.34375 12.9961Z" fill="#2290CE"/>
</svg>
