<svg width="55" height="55" viewBox="0 0 55 55" fill="none" xmlns="http://www.w3.org/2000/svg">
<circle cx="27.5" cy="27.5" r="27.5" fill="#269BD4"/>
<path d="M19.7904 39.7618C20.0555 39.9698 20.3489 40.0415 20.6707 39.9772C20.9925 39.9128 21.3428 39.7321 21.7214 39.435L27.5 34.9936L33.2928 39.435C33.6714 39.7321 34.0216 39.9128 34.3435 39.9772C34.6653 40.0415 34.954 39.9698 35.2096 39.7618C35.4651 39.5538 35.6166 39.284 35.6639 38.9522C35.7112 38.6205 35.6592 38.2219 35.5077 37.7565L33.2218 30.6414L39.0572 26.2594C39.4359 25.9822 39.7033 25.6925 39.8594 25.3905C40.0156 25.0884 40.0416 24.774 39.9375 24.4472C39.8334 24.1303 39.637 23.8976 39.3483 23.7491C39.0596 23.6005 38.6786 23.5263 38.2054 23.5263L31.0495 23.5857L28.8772 16.426C28.7352 15.9606 28.5507 15.6065 28.3235 15.3639C28.0963 15.1213 27.8218 15 27.5 15C27.1782 15 26.906 15.1213 26.6836 15.3639C26.4612 15.6065 26.2742 15.9606 26.1228 16.426L23.9505 23.5857L16.7946 23.5263C16.3308 23.5263 15.9522 23.6005 15.6588 23.7491C15.3654 23.8976 15.1666 24.1303 15.0625 24.4472C14.9584 24.774 14.9844 25.0884 15.1406 25.3905C15.2967 25.6925 15.5641 25.9822 15.9428 26.2594L21.7782 30.6414L19.4923 37.7565C19.3408 38.2219 19.2888 38.6205 19.3361 38.9522C19.3834 39.284 19.5349 39.5538 19.7904 39.7618Z" fill="white"/>
</svg>
